{"title":"The After 2018 1080p WEB-DL DD 5.1 x264 [MW]","magnet":"magnet:?xt=urn:btih:7a2cbf9eb58569e78df9614883aee2188707907d&dn=The+After+2018+1080p+WEB-DL+DD+5.1+x264+%5BMW%5D&tr=udp%3A%2F%2Ftracker.leechers-paradise.org%3A6969&tr=udp%3A%2F%2Fzer0day.ch%3A1337&tr=udp%3A%2F%2Fopen.demonii.com%3A1337&tr=udp%3A%2F%2Ftracker.coppersurfer.tk%3A6969&tr=udp%3A%2F%2Fexodus.desync.com%3A6969","uploader":"MFreaky","categoryP":"video","categoryS":"hd___movies","size":"2145910193","seeders":"0","leechers":"0","description":" <a href=\"https://pichub.site/image/S6tGT\" rel=\"nofollow\" target=\"_NEW\">https://pichub.site/image/S6tGT</a> <a href=\"\nhttps://pichub.site/image/S6zZN\" rel=\"nofollow\" target=\"_NEW\">\nhttps://pichub.site/image/S6zZN</a> <a href=\"\nhttps://pichub.site/image/S6AOD\" rel=\"nofollow\" target=\"_NEW\">\nhttps://pichub.site/image/S6AOD</a> <a href=\"\nhttps://pichub.site/image/S6BAZ\" rel=\"nofollow\" target=\"_NEW\">\nhttps://pichub.site/image/S6BAZ</a> <a href=\"\nhttps://pichub.site/image/S6K6g\" rel=\"nofollow\" target=\"_NEW\">\nhttps://pichub.site/image/S6K6g</a> <a href=\"\nhttps://pichub.site/image/S6uCX\" rel=\"nofollow\" target=\"_NEW\">\nhttps://pichub.site/image/S6uCX</a>\r\n\r\nIMDB <a href=\"\nhttps://www.imdb.com/title/tt3960240/\" rel=\"nofollow\" target=\"_NEW\">\nhttps://www.imdb.com/title/tt3960240/</a>\r\n\r\nVideo\r\nID                                       : 1\r\nFormat                                   : AVC\r\nFormat/Info                              : Advanced Video Codec\r\nFormat profile                           : High@L4.1\r\nFormat settings                          : CABAC / 4 Ref Frames\r\nFormat settings, CABAC                   : Yes\r\nFormat settings, RefFrames               : 4 frames\r\nCodec ID                                 : V_MPEG4/ISO/AVC\r\nDuration                                 : 1 h 29 min\r\nBit rate                                 : 2 800 kb/s\r\nWidth                                    : 1 920 pixels\r\nHeight                                   : 798 pixels\r\nDisplay aspect ratio                     : 2.40:1\r\nFrame rate mode                          : Constant\r\nFrame rate                               : 23.976 (24000/1001) FPS\r\nColor space                              : YUV\r\nChroma subsampling                       : 4:2:0\r\nBit depth                                : 8 bits\r\nScan type                                : Progressive\r\nBits/(Pixel*Frame)                       : 0.076\r\nStream size                              : 1.72 GiB (86%)\r\nWriting library                          : x264 core 155 r2901 7d0ff22\r\nDefault                                  : Yes\r\nForced                                   : No\r\n\r\nAudio\r\nID                                       : 3\r\nFormat                                   : AC-3\r\nFormat/Info                              : Audio Coding 3\r\nCodec ID                                 : A_AC3\r\nDuration                                 : 1 h 29 min\r\nBit rate mode                            : Constant\r\nBit rate                                 : 448 kb/s\r\nChannel(s)                               : 6 channels\r\nChannel positions                        : Front: L C R, Side: L R, LFE\r\nSampling rate                            : 48.0 kHz\r\nFrame rate                               : 31.250 FPS (1536 SPF)\r\nBit depth                                : 16 bits\r\nCompression mode                         : Lossy\r\nStream size                              : 288 MiB (14%)\r\nLanguage                                 : English\r\nService kind                             : Complete Main\r\nDefault                                  : Yes\r\nForced                                   : No","last_updated":"2018-08-26T12:02:16.306Z","parsed":{"xt":"urn:btih:7a2cbf9eb58569e78df9614883aee2188707907d","dn":"The After 2018 1080p WEB-DL DD 5.1 x264 [MW]","tr":["udp://exodus.desync.com:6969","udp://open.demonii.com:1337","udp://tracker.coppersurfer.tk:6969","udp://tracker.leechers-paradise.org:6969","udp://zer0day.ch:1337"],"infoHash":"7a2cbf9eb58569e78df9614883aee2188707907d","infoHashBuffer":{"type":"Buffer","data":[122,44,191,158,181,133,105,231,141,249,97,72,131,174,226,24,135,7,144,125]},"name":"The After 2018 1080p WEB-DL DD 5.1 x264 [MW]","announce":["udp://exodus.desync.com:6969","udp://open.demonii.com:1337","udp://tracker.coppersurfer.tk:6969","udp://tracker.leechers-paradise.org:6969","udp://zer0day.ch:1337"],"urlList":[]}}